<?xml version="1.0" encoding="UTF-8" standalone="no"?>
<!-- Created with Inkscape (http://www.inkscape.org/) -->

<svg
   xmlns:osb="http://www.openswatchbook.org/uri/2009/osb"
   xmlns:dc="http://purl.org/dc/elements/1.1/"
   xmlns:cc="http://creativecommons.org/ns#"
   xmlns:rdf="http://www.w3.org/1999/02/22-rdf-syntax-ns#"
   xmlns:svg="http://www.w3.org/2000/svg"
   xmlns="http://www.w3.org/2000/svg"
   xmlns:sodipodi="http://sodipodi.sourceforge.net/DTD/sodipodi-0.dtd"
   xmlns:inkscape="http://www.inkscape.org/namespaces/inkscape"
   width="32px"
   height="32px"
   viewBox="0 0 32 32"
   version="1.1"
   id="SVGRoot"
   inkscape:version="0.92.5 (2060ec1f9f, 2020-04-08)"
   sodipodi:docname="favicon.svg">
  <defs
     id="defs815">
    <linearGradient
       id="linearGradient2284"
       osb:paint="solid">
      <stop
         style="stop-color:#000000;stop-opacity:1;"
         offset="0"
         id="stop2282" />
    </linearGradient>
    <filter
       inkscape:collect="always"
       style="color-interpolation-filters:sRGB"
       id="filter1406"
       x="-0.015292531"
       width="1.0305851"
       y="-0.009874079"
       height="1.0197482">
      <feGaussianBlur
         inkscape:collect="always"
         stdDeviation="0.063984377"
         id="feGaussianBlur1408" />
    </filter>
  </defs>
  <sodipodi:namedview
     id="base"
     pagecolor="#ffffff"
     bordercolor="#666666"
     borderopacity="1.0"
     inkscape:pageopacity="0"
     inkscape:pageshadow="2"
     inkscape:zoom="8.0"
     inkscape:cx="16.0"
     inkscape:cy="16.0"
     inkscape:document-units="px"
     inkscape:current-layer="layer1"
     showgrid="false"
     inkscape:window-width="1366"
     inkscape:window-height="750"
     inkscape:window-x="0"
     inkscape:window-y="0"
     inkscape:window-maximized="0"
     inkscape:grid-bbox="true"
     inkscape:pagecheckerboard="false"
     showguides="false" />
  <metadata
     id="metadata818">
    <rdf:RDF>
      <cc:Work
         rdf:about="">
        <dc:format>image/svg+xml</dc:format>
        <dc:type
           rdf:resource="http://purl.org/dc/dcmitype/StillImage" />
        <dc:title />
      </cc:Work>
    </rdf:RDF>
  </metadata>
  <g
     inkscape:label="Camada 1"
     inkscape:groupmode="layer"
     id="layer1">
    <text
       xml:space="preserve"
       style="font-style:normal;font-weight:normal;font-size:40px;line-height:1.25;font-family:sans-serif;letter-spacing:0px;word-spacing:0px;fill:#eee0b1;fill-opacity:1;stroke:none;filter:url(#filter1406)"
       x="8.885417"
       y="23.776041"
       id="text1392"><tspan
         sodipodi:role="line"
         id="tspan1390"
         x="8.885417"
         y="59.166664"
         style="font-size:21.33333397px;opacity:0;fill:#eee0b1;fill-opacity:1" /></text>
    <path
       inkscape:connector-curvature="0"
       style="font-style:normal;font-weight:normal;font-size:16px;line-height:1.25;font-family:sans-serif;letter-spacing:0px;word-spacing:0px;fill:#e25822;fill-opacity:1;stroke:none;stroke-width:1.28446245"
       d="M 18.445277,8.3521644 A 0.43030592,0.39118723 18.139609 0 0 18.141511,8.383533 L 16.407569,9.2476748 A 0.43030592,0.39118723 18.139609 0 0 16.2058,9.6522637 C 15.385994,8.1545027 14.15807,7.1050691 12.527594,6.6475254 l -0.005,-0.00164 C 10.636937,6.0928782 8.3742866,6.243303 5.7364166,7.0428925 4.9812312,7.2718027 4.1621807,7.5619698 3.280615,7.904628 2.3950752,8.2307669 1.6080619,8.5927003 0.92425139,8.9952735 A 0.43030592,0.39118723 18.139609 0 0 0.76881667,9.452797 L 7.7519486,26.616422 a 0.43030592,0.39118723 18.139609 0 0 0.5534955,0.254327 L 10.885097,26.087346 A 0.43030592,0.39118723 18.139609 0 0 11.13064,25.591382 L 8.6544001,19.509397 10.304673,19.010506 c 1.31621,-0.39897 2.463308,-0.860935 3.440127,-1.390025 0.98168,-0.53172 1.76352,-1.143802 2.333511,-1.840664 a 0.43030592,0.39118723 18.139609 0 0 0.0033,-0.0015 c 0.582947,-0.722126 0.923918,-1.536196 1.017233,-2.420406 l 0.0018,0.0032 c 0.07512,-0.648894 -0.03832,-1.347368 -0.236074,-2.068337 l 5.187112,12.749283 a 0.43030592,0.39118723 18.139609 0 0 0.552752,0.256598 l 1.856523,-0.562208 a 0.43030592,0.39118723 18.139609 0 0 0.246288,-0.498237 l -3.200937,-7.867401 c 0.0073,-0.0047 0.0068,-0.0056 0.01445,-0.01037 l 0.0065,-0.0029 c 0.129763,-0.07713 0.275973,-0.15411 0.437767,-0.229106 a 0.43030592,0.39118723 18.139609 0 0 0.02022,-0.01099 c 0.174535,-0.09303 0.358253,-0.180986 0.552623,-0.266989 0.188576,-0.08344 0.373441,-0.150921 0.554754,-0.205882 0.455658,-0.138119 0.846034,-0.18969 1.157501,-0.169505 a 0.43030592,0.39118723 18.139609 0 0 0.01331,0.0018 c 0.299759,0.0097 0.544979,0.08869 0.783097,0.246503 0.238238,0.157913 0.479171,0.410343 0.709284,0.776058 a 0.43030592,0.39118723 18.139609 0 0 0.0053,0.0093 c 0.24593,0.367656 0.492769,0.845642 0.730428,1.42987 l 2.083645,5.125251 a 0.43030592,0.39118723 18.139609 0 0 0.552752,0.256598 l 1.856524,-0.562208 a 0.43030592,0.39118723 18.139609 0 0 0.246288,-0.498237 L 28.991382,15.75651 c -0.280686,-0.689992 -0.611517,-1.305494 -0.989686,-1.84706 -0.38797,-0.555605 -0.859232,-1.005772 -1.410844,-1.330601 l -0.0026,-8.39e-4 c -0.544647,-0.341175 -1.175885,-0.538644 -1.863007,-0.592733 -0.716105,-0.0684 -1.504846,0.03716 -2.36831,0.29889 -0.413216,0.125253 -0.815341,0.295246 -1.206007,0.503485 -0.201244,0.100895 -0.370734,0.230587 -0.55395,0.3471 l -1.8386,-4.5214229 A 0.43030592,0.39118723 18.139609 0 0 18.445277,8.3521644 Z m -6.944521,1.3620214 c 0.220182,0.099134 0.422972,0.2236544 0.615478,0.3778352 a 0.43030592,0.39118723 18.139609 0 0 0.0085,0.0078 c 0.383973,0.291211 0.709707,0.730271 0.961631,1.349559 0.267986,0.658776 0.351552,1.207907 0.282659,1.655699 -0.07101,0.46162 -0.270638,0.866326 -0.612752,1.236496 -5.89e-4,6.37e-4 -1.53e-4,0.0016 -7.63e-4,0.0023 -0.336539,0.353269 -0.816409,0.694074 -1.443788,1.009542 -0.0012,6.14e-4 -0.002,8.94e-4 -0.0033,0.0015 -0.644457,0.303588 -1.3969943,0.586613 -2.2634331,0.849248 L 7.5016743,16.672576 5.0216566,10.576769 C 5.5559757,10.37446 6.1917828,10.151909 7.1252326,9.8689625 7.7963475,9.6655359 8.4469068,9.5222126 9.0827343,9.4380023 9.6991299,9.3563658 10.260567,9.377806 10.770429,9.4925386 a 0.43030592,0.39118723 18.139609 0 0 0.01826,0.00341 c 0.254376,0.04648 0.491293,0.1187879 0.71208,0.2181847 z"
       id="path2010" />
    <path
       style="font-style:normal;font-weight:normal;font-size:16px;line-height:1.25;font-family:sans-serif;letter-spacing:0px;word-spacing:0px;fill:#eee0b1;fill-opacity:1;stroke:#2b2b2b;stroke-width:1;stroke-opacity:1;stroke-miterlimit:4;stroke-dasharray:none;stroke-dashoffset:10;stroke-linejoin:round;stroke-linecap:butt;paint-order:stroke fill markers"
       d="m 18.521358,7.1311436 -1.733942,0.8641419 5.826149,14.3228925 1.856524,-0.562208 -3.31272,-8.143144 c 0.05627,-0.04529 0.14997,-0.107831 0.280938,-0.189871 0.144272,-0.08607 0.305466,-0.170983 0.481443,-0.252553 0.184167,-0.09816 0.376753,-0.191261 0.579329,-0.280894 0.202577,-0.08963 0.403185,-0.164944 0.602685,-0.225417 0.492098,-0.149164 0.931519,-0.210683 1.315131,-0.185822 0.3785,0.01229 0.719549,0.12029 1.026399,0.323634 0.306833,0.203391 0.586416,0.506486 0.839998,0.909497 0.266882,0.398979 0.524726,0.900161 0.770065,1.503266 l 2.083645,5.125249 1.856525,-0.562207 -2.239374,-5.503488 c -0.270896,-0.665928 -0.586144,-1.254129 -0.944038,-1.766661 -0.357893,-0.512531 -0.781944,-0.913624 -1.272892,-1.202343 -0.482758,-0.305314 -1.038287,-0.481345 -1.670476,-0.529657 -0.6373,-0.06087 -1.369593,0.03299 -2.194191,0.28294 -0.385699,0.116913 -0.763038,0.273712 -1.131369,0.470044 -0.360142,0.179737 -0.687454,0.384119 -0.98214,0.614584 z M 12.58367,5.4199511 C 10.818836,4.9010605 8.641155,5.032512 6.0520964,5.817305 5.307299,6.0430665 4.4961473,6.3277126 3.6190102,6.6688641 2.7527912,6.9878874 1.9897083,7.3410606 1.3307937,7.7289769 L 8.3139278,24.892601 10.89358,24.109195 8.2666116,17.650612 10.313907,17.030085 c 1.294529,-0.392396 2.416237,-0.8446 3.362988,-1.357403 0.94675,-0.512801 1.686889,-1.094178 2.219031,-1.744766 0.54306,-0.672716 0.856005,-1.417058 0.942175,-2.233562 C 16.93519,10.855722 16.7798,9.9337562 16.370903,8.9285809 15.621256,7.0857602 14.359423,5.9167137 12.58367,5.4199511 Z m -0.75226,2.3385711 c 0.256052,0.1152802 0.493209,0.2605837 0.714802,0.4380624 0.460921,0.3495709 0.829589,0.8588946 1.102189,1.5290114 0.286229,0.703622 0.388071,1.32171 0.306075,1.854668 -0.08199,0.532959 -0.318354,1.008943 -0.705791,1.427517 -0.376574,0.396426 -0.895419,0.760974 -1.557045,1.093256 -0.66844,0.315529 -1.444172,0.608742 -2.3308359,0.877507 L 7.4186298,15.56555 4.6376879,8.7318212 C 5.2024414,8.5041771 6.0350442,8.2218238 7.1345074,7.8885562 7.8261049,7.6789204 8.5016346,7.5307771 9.1631891,7.4431596 c 0.661555,-0.087617 1.2785189,-0.066337 1.8486229,0.061952 0.29051,0.053086 0.563546,0.138129 0.819598,0.2534092 z"
       id="text1396"
       inkscape:connector-curvature="0" />
  </g>
</svg>
