<?xml version="1.0" encoding="UTF-8" standalone="no"?>
<!-- Created with Inkscape (http://www.inkscape.org/) -->

<svg
   xmlns:dc="http://purl.org/dc/elements/1.1/"
   xmlns:cc="http://creativecommons.org/ns#"
   xmlns:rdf="http://www.w3.org/1999/02/22-rdf-syntax-ns#"
   xmlns:svg="http://www.w3.org/2000/svg"
   xmlns="http://www.w3.org/2000/svg"
   xmlns:sodipodi="http://sodipodi.sourceforge.net/DTD/sodipodi-0.dtd"
   xmlns:inkscape="http://www.inkscape.org/namespaces/inkscape"
   width="32px"
   height="32px"
   viewBox="0 0 32 32"
   version="1.1"
   id="SVGRoot"
   inkscape:version="0.92.5 (2060ec1f9f, 2020-04-08)"
   sodipodi:docname="favicon.svg">
  <defs
     id="defs815">
    <filter
       inkscape:collect="always"
       style="color-interpolation-filters:sRGB"
       id="filter1406"
       x="-0.015292531"
       width="1.0305851"
       y="-0.009874079"
       height="1.0197482">
      <feGaussianBlur
         inkscape:collect="always"
         stdDeviation="0.063984377"
         id="feGaussianBlur1408" />
    </filter>
  </defs>
  <sodipodi:namedview
     id="base"
     pagecolor="#ffffff"
     bordercolor="#666666"
     borderopacity="1.0"
     inkscape:pageopacity="0"
     inkscape:pageshadow="2"
     inkscape:zoom="8.0"
     inkscape:cx="16.0"
     inkscape:cy="16.0"
     inkscape:document-units="px"
     inkscape:current-layer="layer1"
     showgrid="false"
     inkscape:window-width="1366"
     inkscape:window-height="750"
     inkscape:window-x="0"
     inkscape:window-y="0"
     inkscape:window-maximized="0"
     inkscape:grid-bbox="true"
     inkscape:pagecheckerboard="false"
     showguides="false" />
  <metadata
     id="metadata818">
    <rdf:RDF>
      <cc:Work
         rdf:about="">
        <dc:format>image/svg+xml</dc:format>
        <dc:type
           rdf:resource="http://purl.org/dc/dcmitype/StillImage" />
        <dc:title />
      </cc:Work>
    </rdf:RDF>
  </metadata>
  <g
     inkscape:label="Camada 1"
     inkscape:groupmode="layer"
     id="layer1">
    <text
       xml:space="preserve"
       style="font-style:normal;font-weight:normal;font-size:40px;line-height:1.25;font-family:sans-serif;letter-spacing:0px;word-spacing:0px;fill:#eee0b1;fill-opacity:1;stroke:none;filter:url(#filter1406)"
       x="8.885417"
       y="23.776041"
       id="text1392"><tspan
         sodipodi:role="line"
         id="tspan1390"
         x="8.885417"
         y="59.166664"
         style="font-size:21.33333397px;opacity:0;fill:#eee0b1;fill-opacity:1" /></text>
    <g
       id="g15"
       transform="matrix(1.2379108,0,0,1.1253735,-3.9436056,-3.2594665)">
      <path
         id="path2010"
         d="M 16.216797,9.0898438 A 0.31941815,0.31941815 0 0 0 16.009766,9.1914062 L 14.986328,10.302734 A 0.31941815,0.31941815 0 0 0 14.9375,10.667969 C 14.013059,9.7141822 12.904337,9.2120263 11.648438,9.2714844 h -0.0039 c -1.457975,0.050252 -3.0193135,0.7421736 -4.6953122,2.0332036 -0.4798154,0.369603 -0.9905252,0.802974 -1.5332032,1.292968 -0.549299,0.478186 -1.0208239,0.9591 -1.4101562,1.445313 a 0.31941815,0.31941815 0 0 0 -0.00391,0.394531 l 8.8925776,11.542969 a 0.31941815,0.31941815 0 0 0 0.449219,0.05664 l 1.638672,-1.263671 a 0.31941815,0.31941815 0 0 0 0.05859,-0.447266 l -3.152344,-4.089844 1.048828,-0.80664 c 0.836268,-0.644182 1.538683,-1.294255 2.105469,-1.953126 0.569607,-0.662148 0.979672,-1.335851 1.220703,-2.021484 a 0.31941815,0.31941815 0 0 0 0.002,-0.002 c 0.244332,-0.70853 0.296722,-1.426891 0.158203,-2.136719 l 0.002,0.002 c -0.09697,-0.522609 -0.33841,-1.035755 -0.644531,-1.544921 l 6.605469,8.574218 a 0.31941815,0.31941815 0 0 0 0.449219,0.05859 l 1.179687,-0.908203 a 0.31941815,0.31941815 0 0 0 0.05859,-0.449219 l -4.076172,-5.291016 c 0.0041,-0.0055 0.0035,-0.0061 0.0078,-0.01172 l 0.0039,-0.0039 c 0.07371,-0.09284 0.159059,-0.189739 0.255859,-0.289063 a 0.31941815,0.31941815 0 0 0 0.01172,-0.01367 c 0.101619,-0.116558 0.210889,-0.23151 0.328125,-0.347656 0.113741,-0.112683 0.228551,-0.212042 0.34375,-0.300781 0.289507,-0.223009 0.552965,-0.362265 0.777343,-0.425782 a 0.31941815,0.31941815 0 0 0 0.0098,-0.002 c 0.213704,-0.06865 0.404933,-0.06972 0.609375,-0.0078 0.20455,0.06197 0.432845,0.196595 0.679688,0.421875 a 0.31941815,0.31941815 0 0 0 0.0059,0.0059 c 0.258449,0.222765 0.543037,0.53091 0.845703,0.923828 l 2.654297,3.447266 a 0.31941815,0.31941815 0 0 0 0.449219,0.05859 l 1.179687,-0.908203 a 0.31941815,0.31941815 0 0 0 0.05859,-0.449219 L 25.36733,12.154301 c -0.357459,-0.464048 -0.733077,-0.857547 -1.125,-1.181641 -0.402082,-0.332496 -0.838552,-0.562003 -1.302735,-0.673828 h -0.002 c -0.463048,-0.126279 -0.953967,-0.119036 -1.451172,0.01367 -0.520958,0.128968 -1.052951,0.411386 -1.601562,0.833984 -0.262541,0.202236 -0.506919,0.436369 -0.734375,0.697266 -0.118643,0.129449 -0.208231,0.273171 -0.310547,0.410156 L 16.498047,9.2128906 a 0.31941815,0.31941815 0 0 0 -0.28125,-0.1230468 z m -4.583985,2.8222652 c 0.178229,0.02095 0.350057,0.06602 0.521485,0.136719 a 0.31941815,0.31941815 0 0 0 0.0078,0.0039 c 0.338159,0.128355 0.669405,0.386239 0.990235,0.802735 0.341287,0.443054 0.527142,0.847911 0.582031,1.21289 0.05659,0.376248 0.0093,0.74103 -0.146484,1.115235 -2.68e-4,6.44e-4 2.68e-4,0.0013 0,0.002 -0.155757,0.359674 -0.415502,0.746113 -0.785157,1.150391 -7.2e-4,7.87e-4 -0.0012,0.0012 -0.002,0.002 -0.384448,0.399401 -0.849889,0.810321 -1.40039,1.234375 l -0.98041,0.755771 -3.1582032,-4.099609 C 7.5918799,13.935702 7.9889539,13.601381 8.5820312,13.144531 9.0084315,12.816074 9.4342217,12.53948 9.8632812,12.3125 10.279228,12.092457 10.680228,11.966368 11.066406,11.925781 a 0.31941815,0.31941815 0 0 0 0.01367,-0.002 c 0.190182,-0.0286 0.374017,-0.03272 0.552734,-0.01172 z"
         style="font-style:normal;font-weight:normal;font-size:16px;line-height:1.25;font-family:sans-serif;letter-spacing:0px;word-spacing:0px;fill:#e25822;fill-opacity:1;stroke:none"
         inkscape:connector-curvature="0" />
      <path
         inkscape:connector-curvature="0"
         id="text1396"
         d="m 15.988282,8.1230471 -1.023438,1.1113279 7.419922,9.632813 1.179687,-0.908203 -4.21875,-5.476563 c 0.02923,-0.04945 0.08087,-0.121797 0.154297,-0.21875 0.08188,-0.103462 0.175965,-0.210329 0.28125,-0.318359 0.107227,-0.12299 0.221565,-0.244186 0.34375,-0.365235 0.122186,-0.121049 0.246293,-0.230485 0.373047,-0.328125 0.31266,-0.240843 0.608416,-0.400286 0.884766,-0.478515 0.26984,-0.08668 0.535379,-0.08958 0.798828,-0.0098 0.263449,0.07982 0.530717,0.243934 0.802734,0.492188 0.280468,0.241744 0.57818,0.56509 0.890625,0.970703 l 2.654297,3.447265 1.179688,-0.908203 -2.851563,-3.701172 C 24.51243,10.616555 24.154114,10.240279 23.783203,9.93356 23.412293,9.626841 23.020467,9.423411 22.607422,9.324185 22.196319,9.209999 21.76376,9.214631 21.306641,9.337855 c -0.463628,0.114775 -0.958505,0.373768 -1.482422,0.777344 -0.245058,0.188769 -0.475001,0.406363 -0.689453,0.652343 -0.212511,0.231021 -0.396167,0.472819 -0.550781,0.726563 z M 11.404297,8.3046878 C 10.039443,8.3506992 8.5336579,9.006298 6.8886718,10.273438 6.4154567,10.637957 5.9090428,11.065036 5.3691406,11.552735 4.8318263,12.020488 4.3751577,12.488521 4,12.957032 L 12.892579,24.5 l 1.638671,-1.263672 -3.345703,-4.34375 1.300782,-1.001953 c 0.822493,-0.63357 1.509254,-1.269614 2.058593,-1.908203 0.549339,-0.638588 0.937084,-1.277864 1.16211,-1.917969 0.227614,-0.66005 0.276349,-1.317181 0.148437,-1.972656 -0.125324,-0.675421 -0.448008,-1.351322 -0.96875,-2.027344 C 13.932025,8.82508 12.77174,8.2387302 11.404297,8.3046878 Z m 0.0098,2.0058592 c 0.207264,0.02436 0.408138,0.07682 0.605469,0.158203 0.405927,0.154078 0.783697,0.455569 1.130859,0.90625 0.36452,0.473215 0.579203,0.926933 0.644531,1.361328 0.06533,0.434396 0.0086,0.863824 -0.167969,1.28711 -0.174024,0.403339 -0.455775,0.81811 -0.845703,1.24414 -0.398606,0.414764 -0.878055,0.839486 -1.441406,1.273438 l -1.234375,0.949219 -3.5410159,-4.595703 c 0.3457748,-0.32021 0.8678505,-0.750963 1.5664063,-1.289063 0.439414,-0.338482 0.8817048,-0.625164 1.328125,-0.861328 0.4464206,-0.236164 0.8865526,-0.376493 1.3183596,-0.421875 0.217198,-0.03266 0.429455,-0.03608 0.636719,-0.01172 z"
         style="font-style:normal;font-weight:normal;font-size:16px;line-height:1.25;font-family:sans-serif;letter-spacing:0px;word-spacing:0px;fill:#eee0b1;fill-opacity:1;stroke:none" />
    </g>
  </g>
</svg>
