<svg xmlns="http://www.w3.org/2000/svg" width="32" height="32"><path style="font-style:normal;font-weight:400;font-size:16px;line-height:1.25;font-family:sans-serif;letter-spacing:0;word-spacing:0;fill:#e25822;fill-opacity:1;stroke:none;stroke-width:1.28446245" d="M18.445 8.352a.43.391 18.14 0 0-.303.032l-1.734.864a.43.391 18.14 0 0-.202.404c-.82-1.497-2.048-2.547-3.678-3.004l-.005-.002c-1.886-.553-4.149-.403-6.787.397a34.42 34.42 0 0 0-2.455.862 14.62 14.62 0 0 0-2.357 1.09.43.391 18.14 0 0-.155.458l6.983 17.163a.43.391 18.14 0 0 .553.255l2.58-.784a.43.391 18.14 0 0 .246-.496L8.654 19.51l1.65-.498c1.317-.4 2.464-.861 3.44-1.39.982-.532 1.764-1.144 2.334-1.841a.43.391 18.14 0 0 .004-.002 4.564 4.564 0 0 0 1.017-2.42l.002.003c.075-.649-.039-1.347-.236-2.068l5.187 12.75a.43.391 18.14 0 0 .552.256l1.857-.563a.43.391 18.14 0 0 .246-.498l-3.2-7.867c.007-.005.006-.006.014-.01l.006-.003c.13-.078.276-.155.438-.23a.43.391 18.14 0 0 .02-.01c.175-.094.358-.182.553-.268a4.83 4.83 0 0 1 .555-.205c.455-.139.846-.19 1.157-.17a.43.391 18.14 0 0 .013.002c.3.01.545.089.784.246.238.158.479.41.709.776a.43.391 18.14 0 0 .005.01c.246.367.493.845.73 1.43l2.084 5.125a.43.391 18.14 0 0 .553.256l1.856-.562a.43.391 18.14 0 0 .247-.498l-2.24-5.503a9.402 9.402 0 0 0-.99-1.848 4.526 4.526 0 0 0-1.41-1.33l-.003-.001a4.08 4.08 0 0 0-1.863-.593c-.716-.068-1.505.037-2.368.3a6.693 6.693 0 0 0-1.206.503c-.201.1-.37.23-.554.347l-1.839-4.522a.43.391 18.14 0 0-.313-.26Zm-6.944 1.362c.22.1.423.224.615.378a.43.391 18.14 0 0 .009.008c.384.291.71.73.961 1.35.268.658.352 1.207.283 1.655-.071.462-.27.866-.613 1.237v.002c-.337.353-.817.694-1.444 1.01h-.004a16.71 16.71 0 0 1-2.263.85l-1.543.469-2.48-6.096c.534-.203 1.17-.425 2.103-.708a12.318 12.318 0 0 1 1.958-.431 4.787 4.787 0 0 1 1.687.055.43.391 18.14 0 0 .019.003c.254.046.491.119.712.218z"/><path style="font-style:normal;font-weight:400;font-size:16px;line-height:1.25;font-family:sans-serif;letter-spacing:0;word-spacing:0;fill:#eee0b1;fill-opacity:1;stroke:#2b2b2b;stroke-width:1;stroke-opacity:1;stroke-miterlimit:4;stroke-dasharray:none;stroke-dashoffset:10;stroke-linejoin:round;stroke-linecap:butt;paint-order:stroke fill markers" d="m18.521 7.131-1.734.864 5.827 14.323 1.856-.562-3.313-8.143c.057-.045.15-.108.281-.19a5.5 5.5 0 0 1 .482-.253 8.8 8.8 0 0 1 .58-.28c.202-.09.402-.165.602-.226.492-.15.931-.21 1.315-.186.378.013.72.12 1.026.324.307.203.587.506.84.91.267.398.525.9.77 1.503l2.084 5.125 1.857-.562-2.24-5.504a8.991 8.991 0 0 0-.944-1.766 4.068 4.068 0 0 0-1.273-1.203c-.483-.305-1.038-.481-1.67-.53-.638-.06-1.37.034-2.194.283a6.268 6.268 0 0 0-1.132.47 5.77 5.77 0 0 0-.982.615zM12.584 5.42c-1.765-.519-3.943-.387-6.532.397-.745.226-1.556.51-2.433.852-.866.319-1.63.672-2.288 1.06l6.983 17.164 2.58-.784-2.627-6.458 2.047-.62c1.294-.393 2.416-.846 3.363-1.358.947-.513 1.687-1.094 2.219-1.745a4.196 4.196 0 0 0 .942-2.234c.097-.838-.058-1.76-.467-2.765-.75-1.843-2.012-3.012-3.787-3.509Zm-.753 2.339c.256.115.494.26.715.438.461.35.83.858 1.102 1.529.287.703.388 1.321.306 1.854a2.665 2.665 0 0 1-.705 1.428c-.377.396-.896.76-1.557 1.093-.669.316-1.445.609-2.331.878l-1.942.587-2.781-6.834c.564-.228 1.397-.51 2.497-.843.691-.21 1.367-.358 2.028-.446a5.246 5.246 0 0 1 1.849.062c.29.053.563.138.82.254z"/></svg>
